<?xml version="1.0" encoding="UTF-8"?>
<svg xmlns="http://www.w3.org/2000/svg" xmlns:xlink="http://www.w3.org/1999/xlink" width="24pt" height="24pt" viewBox="0 0 24 24" version="1.1">
<g id="surface980471">
<path style=" stroke:none;fill-rule:nonzero;fill:rgb(0%,0%,0%);fill-opacity:1;" d="M 12 1 C 8.675781 1 6 3.675781 6 7 L 6 8 L 4 8 L 4 22 L 20 22 L 20 8 L 18 8 L 18 7 C 18 3.675781 15.324219 1 12 1 Z M 12 3 C 14.277344 3 16 4.722656 16 7 L 16 8 L 8 8 L 8 7 C 8 4.722656 9.722656 3 12 3 Z M 12 13 C 13.101562 13 14 13.898438 14 15 C 14 16.101562 13.101562 17 12 17 C 10.898438 17 10 16.101562 10 15 C 10 13.898438 10.898438 13 12 13 Z M 12 13 "/>
</g>
</svg>
